#!OML:ASF G:\ViconDB\ViconDB\414\test\team2\shane.ASF
:FULLY-SPECIFIED
:DEGREES
212
root 7.99115 16.5182 -2.49016 119.551 249.489 -112.813
lowerback 15.8834 0.647145 6.5409
upperback 6.40972 1.54844 1.78564
thorax -1.92795 0.711517 -2.07215
lowerneck -26.1237 9.96522 1.76646
upperneck 6.31665 14.2897 -12.0951
head 7.13716 5.70282 -2.29311
rclavicle 3.18055e-014 2.8625e-014
rhumerus -38.1623 5.12597 -65.7439
rradius 35.5866
rwrist 24.7248
rhand -36.33 -24.0267
rfingers 7.12502
rthumb -9.42823 -413.796
lclavicle 3.18055e-014 2.8625e-014
lhumerus -30.1134 -18.377 99.9838
lradius 41.8542
lwrist -26.497
lhand -50.078 8.74603
lfingers 7.12502
lthumb -22.6639 37.4353
rfemur -25.8086 -44.0036 -1.90935
rtibia 50.034
rfoot -25.2521 -29.6905
rtoes -6.19252
lfemur -11.6146 21.3926 -6.42584
ltibia 43.4288
lfoot -18.5409 -8.23271
ltoes -10.7121
213
root 7.99905 16.5852 -2.31104 124.268 249.448 -117.713
lowerback 15.5466 0.79121 6.74502
upperback 6.33297 1.75749 1.79712
thorax -1.80615 0.826086 -2.20265
lowerneck -26.0211 10.0163 1.35697
upperneck 6.38098 14.4461 -11.7223
head 7.08857 5.80814 -2.09283
rclavicle 6.20208e-014 4.77083e-014
rhumerus -38.7509 5.09755 -66.6072
rradius 35.6509
rwrist 24.4691
rhand -36.4879 -23.9242
rfingers 7.12502
rthumb -9.58057 -413.686
lclavicle 6.20208e-014 4.77083e-014
lhumerus -30.3896 -18.6193 100.301
lradius 41.7209
lwrist -27.7263
lhand -49.8749 8.36577
lfingers 7.12502
lthumb -22.469 37.0787
rfemur -23.8186 -43.4284 -2.39225
rtibia 48.2044
rfoot -25.5712 -29.5844
rtoes -6.68549
lfemur -12.8878 22.4856 -6.97227
ltibia 43.0017
lfoot -17.7289 -8.43214
ltoes -11.1684
214
root 8.01972 16.6427 -2.14324 129.518 249.058 -122.969
lowerback 15.328 0.861492 6.78717
upperback 6.02704 1.87956 1.73927
thorax -2.00179 0.886339 -2.30661
lowerneck -25.7625 10.2267 1.73485
upperneck 6.54613 14.6737 -11.9164
head 7.16381 5.91585 -2.17715
rclavicle -3.18055e-015 0
rhumerus -39.2066 4.96177 -67.4477
rradius 35.144
rwrist 25.1739
rhand -36.6313 -23.3822
rfingers 7.12502
rthumb -9.71889 -413.138
lclavicle -3.18055e-015 0
lhumerus -30.8223 -19.1173 100.485
lradius 41.6873
lwrist -27.6569
lhand -49.7613 8.03952
lfingers 7.12502
lthumb -22.36 36.7656
rfemur -22.0885 -42.9277 -2.71251
rtibia 46.4658
rfoot -25.6019 -29.7094
rtoes -8.19035
lfemur -14.5466 23.6054 -7.74527
ltibia 42.6293
lfoot -16.6649 -8.80143
ltoes -11.0355
215
root 8.03227 16.6927 -1.95805 133.996 248.811 -127.542
lowerback 14.961 0.955562 6.95403
upperback 5.92173 2.01438 1.70418
thorax -1.89768 0.962943 -2.45045
lowerneck -25.6134 10.4805 2.06538
upperneck 6.64068 14.969 -12.1376
head 7.23725 6.04934 -2.25046
rclavicle 2.22639e-014 1.90833e-014
rhumerus -39.242 4.98979 -68.3004
rradius 34.9717
rwrist 25.2751
rhand -36.4151 -22.6977
rfingers 7.12502
rthumb -9.51037 -412.463
lclavicle 2.22639e-014 1.90833e-014
lhumerus -31.2211 -19.364 100.529
lradius 41.7534
lwrist -27.7845
lhand -49.7402 8.22858
lfingers 7.12502
lthumb -22.3397 36.9571
rfemur -20.3949 -42.1324 -2.86415
rtibia 44.8141
rfoot -25.988 -29.4439
rtoes -7.47135
lfemur -15.9131 24.6993 -8.46475
ltibia 42.3021
lfoot -15.5792 -8.77249
ltoes -11.3938
216
root 8.03399 16.7355 -1.77749 137.643 248.486 -131.413
lowerback 14.7633 1.15429 6.90404
upperback 5.80096 2.27096 1.65889
thorax -1.89801 1.09336 -2.50615
lowerneck -25.2777 10.6058 2.0161
upperneck 6.68567 15.1379 -11.942
head 7.18859 6.16513 -2.16462
rclavicle 2.8625e-014 2.22639e-014
rhumerus -39.3298 4.88101 -69.0351
rradius 34.8672
rwrist 25.7152
rhand -36.1459 -21.9891
rfingers 7.12502
rthumb -9.25059 -411.766
lclavicle 2.8625e-014 2.22639e-014
lhumerus -31.6743 -19.7167 100.556
lradius 41.9913
lwrist -26.6868
lhand -49.3883 7.37183
lfingers 7.12502
lthumb -22.0019 36.1404
rfemur -18.5954 -40.3953 -3.32927
rtibia 43.2391
rfoot -26.2712 -29.5105
rtoes -7.45728
lfemur -16.9164 25.8339 -9.25052
ltibia 41.9588
lfoot -14.6319 -8.69793
ltoes -11.5844
217
root 8.04229 16.768 -1.58742 141.214 248.095 -135.273
lowerback 14.5226 1.29504 6.91467
upperback 5.76086 2.44824 1.68009
thorax -1.79641 1.18734 -2.50962
lowerneck -25.3203 10.8029 2.20868
upperneck 7.13225 15.417 -11.9523
head 7.37736 6.28132 -2.14009
rclavicle -3.10104e-014 -5.725e-014
rhumerus -39.1531 4.85487 -69.6377
rradius 34.8736
rwrist 26.002
rhand -35.9907 -21.2665
rfingers 7.12502
rthumb -9.10084 -411.05
lclavicle -3.10104e-014 -5.725e-014
lhumerus -32.0986 -19.9038 100.564
lradius 42.1097
lwrist -26.9306
lhand -49.3353 8.18445
lfingers 7.12502
lthumb -21.951 36.959
rfemur -16.7731 -38.3629 -3.68151
rtibia 41.7382
rfoot -26.8366 -29.733
rtoes -6.1159
lfemur -17.7966 26.6436 -10.0432
ltibia 41.6576
lfoot -13.8566 -8.33691
ltoes -12.0535
218
root 8.04347 16.7868 -1.40244 144.738 247.657 -139.182
lowerback 14.4183 1.45502 6.96115
upperback 5.6695 2.67107 1.70938
thorax -1.81609 1.29926 -2.53619
lowerneck -25.1424 10.8959 2.17945
upperneck 7.43447 15.5757 -11.7867
head 7.44222 6.36875 -2.05776
rclavicle 7.95139e-016 3.49861e-014
rhumerus -39.1518 4.83413 -70.2351
rradius 34.9827
rwrist 26.5703
rhand -35.8672 -20.5197
rfingers 7.12502
rthumb -8.98164 -410.308
lclavicle 7.95139e-016 3.49861e-014
lhumerus -32.7149 -20.8169 100.775
lradius 43.1755
lwrist -22.3633
lhand -48.1405 6.30204
lfingers 7.12502
lthumb -20.8034 35.2068
rfemur -15.0627 -36.2153 -3.79911
rtibia 40.3236
rfoot -27.0067 -30.4878
rtoes -5.38535
lfemur -18.4103 27.1331 -10.5944
ltibia 41.366
lfoot -13.1198 -7.74781
ltoes -12.8355
